Coordinates
version=1
nRows=5
nColumns=40
inDegrees=yes

Units are S.I. units (second, meters, Newtons, ...)
Angles are in degrees.

endheader
time	pelvis_tilt	pelvis_list	pelvis_rotation	pelvis_tx	pelvis_ty	pelvis_tz	hip_flexion_r	hip_adduction_r	hip_rotation_r	knee_angle_r	knee_angle_r_beta	ankle_angle_r	subtalar_angle_r	mtp_angle_r	hip_flexion_l	hip_adduction_l	hip_rotation_l	knee_angle_l	knee_angle_l_beta	ankle_angle_l	subtalar_angle_l	mtp_angle_l	lumbar_extension	lumbar_bending	lumbar_rotation	arm_flex_r	arm_add_r	arm_rot_r	elbow_flex_r	pro_sup_r	wrist_flex_r	wrist_dev_r	arm_flex_l	arm_add_l	arm_rot_l	elbow_flex_l	pro_sup_l	wrist_flex_l	wrist_dev_l
     38.52000000	     -7.05252626	     -3.82226818	     -1.49953481	      1.07482627	      0.92001392	      0.42065268	     35.52262615	     -3.56658811	     -9.35866808	     24.56272098	     24.56272098	      3.93393848	     -3.35443384	      4.60461003	      3.73088594	     -4.91477692	     -7.31208511	     15.05171199	     15.05171199	     19.47584566	     -5.65929231	     -1.31325963	    -11.66330864	      4.27369366	      3.42316404	     -5.78097955	    -18.89944689	     -0.39755134	     28.20934741	     46.87859453	      0.00000000	      0.00000000	     27.03752773	    -21.29772309	      1.95531497	     89.61238683	     47.25220251	      0.00000000	      0.00000000
     38.53157143	     -6.92328903	     -3.39743583	     -1.26520313	      1.07698473	      0.91832190	      0.42202298	     34.39533776	     -3.76659833	     -9.72589608	     22.71537167	     22.71537167	      3.65112247	     -2.13775523	      5.07593612	      2.50706792	     -4.51065187	     -7.41603149	     14.33083003	     14.33083003	     19.87040903	     -5.04236687	     -1.36769296	    -11.50879516	      3.87906314	      3.37347175	     -7.79043022	    -18.90189889	     -0.52346407	     27.90946095	     46.87081237	      0.00000000	      0.00000000	     27.52847989	    -21.33009382	      1.96865694	     90.87470936	     47.29258051	      0.00000000	      0.00000000
     38.54314286	     -6.81897733	     -2.93293063	     -1.06459130	      1.07926634	      0.91653154	      0.42363854	     33.43740565	     -4.01083658	    -10.01128436	     21.48827992	     21.48827992	      3.37122387	     -1.14074872	      5.28472291	      1.31249713	     -4.08812474	     -7.52834787	     13.64040161	     13.64040161	     20.25769894	     -4.38265584	     -1.32005324	    -11.34650560	      3.39913699	      3.36579008	     -9.86453877	    -18.76959524	     -0.71595064	     27.91649198	     46.85366259	      0.00000000	      0.00000000	     27.82203821	    -21.43945060	      2.02451551	     92.36220694	     47.33327216	      0.00000000	      0.00000000
     38.55471429	     -6.65188273	     -2.49857584	     -0.85612378	      1.08168375	      0.91479206	      0.42537262	     32.57161893	     -4.26955138	    -10.26139767	     20.89662214	     20.89662214	      3.11712298	     -0.46261315	      4.95866196	      0.10726788	     -3.72338218	     -7.60549223	     13.08681406	     13.08681406	     20.72713027	     -3.73334625	     -1.05438023	    -11.30160127	      2.97368595	      3.39862953	    -12.04732071	    -18.59767212	     -1.09855231	     28.47891747	     46.81987794	      0.00000000	      0.00000000	     27.89984903	    -21.54482859	      2.16062627	     94.13258468	     47.38098676	      0.00000000	      0.00000000
     38.56628571	     -6.58524693	     -2.12141608	     -0.67421635	      1.08398909	      0.91303030	      0.42734478	     31.95609737	     -4.45383770	    -10.28023695	     20.78485969	     20.78485969	      2.80418045	     -0.34191180	      4.34140571	     -0.85132874	     -3.45275298	     -7.61254013	     12.78195352	     12.78195352	     21.21194180	     -3.28829382	     -0.72621897	    -11.15041704	      2.61686361	      3.47223521	    -13.97613937	    -18.29226290	     -1.39918738	     28.86065008	     46.79296661	      0.00000000	      0.00000000	     27.87767556	    -21.56850970	      2.12629566	     95.52126827	     47.42845930	      0.00000000	      0.00000000
